<svg width="1280" height="706" viewBox="0 0 1280 706" fill="none" xmlns="http://www.w3.org/2000/svg">
<circle cx="210" cy="376" r="131" fill="#39618B"/>
<path d="M468.96 454.805C453.507 454.805 439.067 452.683 425.64 448.44V426.59C432.1 428.743 439.288 430.422 447.205 431.625C455.122 432.765 462.468 433.335 469.245 433.335C480.518 433.335 488.688 431.688 493.755 428.395C498.822 425.038 501.355 420.13 501.355 413.67C501.355 410.06 500.532 407.083 498.885 404.74C497.302 402.333 494.673 400.338 491 398.755C487.39 397.172 482.355 395.747 475.895 394.48L465.35 392.485C450.467 389.572 439.637 384.885 432.86 378.425C426.083 371.902 422.695 363.225 422.695 352.395C422.695 339.095 427.857 328.803 438.18 321.52C448.503 314.237 463.735 310.595 483.875 310.595C497.618 310.595 510.095 312.178 521.305 315.345V337.195C515.985 335.548 510.095 334.282 503.635 333.395C497.238 332.508 490.81 332.065 484.35 332.065C472.253 332.065 463.45 333.743 457.94 337.1C452.493 340.393 449.77 345.175 449.77 351.445C449.77 354.928 450.467 357.842 451.86 360.185C453.253 362.528 455.565 364.492 458.795 366.075C462.088 367.658 466.617 369.02 472.38 370.16L482.925 372.155C493.818 374.308 502.59 377.19 509.24 380.8C515.953 384.347 520.83 388.717 523.87 393.91C526.91 399.103 528.43 405.247 528.43 412.34C528.43 421.207 526.055 428.838 521.305 435.235C516.618 441.568 509.81 446.413 500.88 449.77C491.95 453.127 481.31 454.805 468.96 454.805ZM668.754 312.4L613.749 392.485V453H586.389V392.77L529.579 312.4H559.219L600.544 370.92L641.014 312.4H668.754ZM725.126 454.14C710.179 454.14 695.993 453.285 682.566 451.575V316.01C689.469 314.427 697.291 313.223 706.031 312.4C714.834 311.513 723.258 311.07 731.301 311.07C787.288 311.07 815.281 334.947 815.281 382.7C815.281 399.23 811.956 412.752 805.306 423.265C798.719 433.778 788.776 441.568 775.476 446.635C762.239 451.638 745.456 454.14 725.126 454.14ZM731.871 432.29C750.808 432.29 764.773 428.3 773.766 420.32C782.759 412.277 787.256 399.673 787.256 382.51C787.256 365.537 782.696 353.028 773.576 344.985C764.519 336.878 750.713 332.825 732.156 332.825C725.316 332.825 717.906 333.49 709.926 334.82V431.15C716.069 431.91 723.384 432.29 731.871 432.29ZM946.36 312.4H972.2V453H944.555L867.605 349.925V453H841.765V312.4H869.41L946.36 415.475V312.4ZM1071.18 454.805C1056.36 454.805 1043.5 452.082 1032.61 446.635C1021.78 441.125 1013.42 432.987 1007.53 422.22C1001.64 411.39 998.695 398.217 998.695 382.7C998.695 367.183 1001.64 354.042 1007.53 343.275C1013.48 332.445 1021.87 324.307 1032.7 318.86C1043.6 313.35 1056.42 310.595 1071.18 310.595C1086 310.595 1098.86 313.35 1109.75 318.86C1120.64 324.37 1129.03 332.54 1134.92 343.37C1140.81 354.137 1143.76 367.247 1143.76 382.7C1143.76 398.153 1140.78 411.295 1134.83 422.125C1128.88 432.892 1120.45 441.03 1109.56 446.54C1098.73 452.05 1085.94 454.805 1071.18 454.805ZM1071.18 432.955C1085.37 432.955 1096.32 428.838 1104.05 420.605C1111.84 412.372 1115.73 399.927 1115.73 383.27C1115.73 366.107 1111.81 353.345 1103.95 344.985C1096.16 336.625 1085.24 332.445 1071.18 332.445C1057.12 332.445 1046.16 336.562 1038.31 344.795C1030.52 352.965 1026.62 365.41 1026.62 382.13C1026.62 399.42 1030.49 412.213 1038.21 420.51C1046 428.807 1056.99 432.955 1071.18 432.955Z" fill="#39618B"/>
<path d="M292.495 294.354L236.708 400.848L186 350.141L292.495 294.354Z" fill="white"/>
<path d="M130.354 456.495L236.848 400.708L186.141 350L130.354 456.495Z" fill="white"/>
<ellipse cx="210.5" cy="376" rx="22.5" ry="22" fill="#39618B"/>
<rect x="199" y="231" width="25" height="32" rx="12.5" fill="#39618B"/>
<circle cx="210.5" cy="218.5" r="17.5" stroke="#39618B" stroke-width="10"/>
</svg>
